PathFileType	4	(X/Y/Z)	/Users/visionmauri/1_5_1_f_1_Sports2D/1_5_1_f_1_Sports2D_px_person00.trc
DataRate	CameraRate	NumFrames	NumMarkers	Units	OrigDataRate	OrigDataStartFrame	OrigNumFrames
30.0	30.0	5	22	m	30.0	108	432
Frame#	Time	Hip			RHip			RKnee			RAnkle			RBigToe			RSmallToe			RHeel			LHip			LKnee			LAnkle			LBigToe			LSmallToe			LHeel			Neck			Head			Nose			RShoulder			RElbow			RWrist			LShoulder			LElbow			LWrist			
		X1	Y1	Z1	X2	Y2	Z2	X3	Y3	Z3	X4	Y4	Z4	X5	Y5	Z5	X6	Y6	Z6	X7	Y7	Z7	X8	Y8	Z8	X9	Y9	Z9	X10	Y10	Z10	X11	Y11	Z11	X12	Y12	Z12	X13	Y13	Z13	X14	Y14	Z14	X15	Y15	Z15	X16	Y16	Z16	X17	Y17	Z17	X18	Y18	Z18	X19	Y19	Z19	X20	Y20	Z20	X21	Y21	Z21	X22	Y22	Z22
108	3.6083526682134575	570.670264411637	820.7162893510953	0.0	630.7605789922064	824.6931006251348	0.0	629.2998879615551	1055.692303880084	0.0	611.6913939754576	1264.1913145703243	0.0	599.7083224360576	1285.8982775104753	0.0	633.7867088232495	1294.2333839003425	0.0	602.8137877814623	1298.5122301823649	0.0	517.1739876822104	825.2758292455342	0.0	526.9533910899032	1031.9402034915552	0.0	519.9049716613135	1274.8335376222444	0.0	529.8719789263781	1324.5900349442106	0.0	499.63171904841374	1338.5352113724457	0.0	526.2953416002747	1317.8719190659783	0.0	566.2343571013336	534.8091239865068	0.0	568.7359069682343	429.901667854255	0.0	569.6406696697954	490.9220093291523	0.0	666.969972234694	560.0970918648526	0.0	712.7617358829652	694.4365647440187	0.0	745.4640285293636	829.5482396658691	0.0	465.07491376794957	565.2656762320504	0.0	409.8773048508398	718.8237083992651	0.0	423.2029335144331	721.7026824760206	0.0
109	3.6417633410672856	572.1103203504779	820.2272209806669	0.0	632.4469533437708	824.9876615224758	0.0	628.4134378967907	1054.8462647199397	0.0	610.0371761317912	1264.6403010638182	0.0	595.9263456516071	1289.2867245592433	0.0	631.7905388533371	1295.2351322802785	0.0	601.1222009579074	1298.6720898134695	0.0	518.6854204743108	824.6729883824477	0.0	527.5498842285068	1029.6045542501754	0.0	520.4063108121704	1275.7414650779585	0.0	527.1181613090968	1316.4445366721318	0.0	499.6177553954063	1324.5374622235347	0.0	527.2824223996279	1309.6836198258738	0.0	569.0160818398916	535.2391633951901	0.0	572.0329367390402	432.49747963096553	0.0	574.1585223927511	491.7684734962162	0.0	669.3155237349688	560.0447920385812	0.0	714.3056653977587	693.91521121349	0.0	744.6614756244647	829.8459380018411	0.0	468.3246989256229	565.9209080124032	0.0	412.54387224668363	719.5714485024572	0.0	428.0241091940101	720.5991597987337	0.0
110	3.675174013921114	574.3202310629963	820.1127703080695	0.0	633.8348709491573	824.9531790525956	0.0	628.25648528095	1054.5145614387425	0.0	609.1386226211276	1264.511252575724	0.0	590.1361359170863	1290.7081234137731	0.0	630.045974181868	1296.9173783748713	0.0	600.545148791815	1298.1696051363203	0.0	520.6847864743314	824.1241845988527	0.0	528.2962984176585	1026.7343465938422	0.0	523.0190355969818	1254.9864345071153	0.0	525.5385117900005	1305.8105967503468	0.0	501.61100073678693	1310.3230095079812	0.0	528.9036356036835	1278.5293914188906	0.0	571.7576064257348	536.011975764363	0.0	575.9772365599623	434.2122672728231	0.0	578.9407611615524	492.2483154062352	0.0	671.5570794272205	560.058848351397	0.0	716.40422009281	694.0082592447999	0.0	744.2856257218345	829.7936490457176	0.0	472.20935147006793	566.1300607244885	0.0	416.4014623156027	718.8150796970828	0.0	431.4450714549145	719.4250220095076	0.0
111	3.7085846867749424	576.7535803443313	820.2658031004798	0.0	635.0345046389556	824.3195219537198	0.0	628.2111939015773	1054.6548185651188	0.0	609.2508426187875	1263.782433955905	0.0	588.224854783521	1290.6146046179153	0.0	629.3792019937306	1298.9401835830236	0.0	600.0689063427751	1298.0365724279093	0.0	522.5093747259581	823.0759058830944	0.0	529.9897656247795	1024.451730410948	0.0	525.807461558754	1190.9605738697458	0.0	525.3773645266515	1301.4085948226193	0.0	502.9597307647319	1307.2007519743443	0.0	530.3515624551095	1206.2622922430646	0.0	575.042414374558	537.9625973452619	0.0	579.8523966094677	435.35252938770947	0.0	582.1673547911681	493.3028231910792	0.0	673.6274929337646	560.5145447943889	0.0	719.5634890696332	693.7300128235971	0.0	745.1191355627815	829.4123985498545	0.0	476.7480647817992	566.1635961781925	0.0	421.19036624497863	716.7859478692823	0.0	432.78588415162756	718.2253302057123	0.0
112	3.7419953596287705	578.564327559789	819.06133481331	0.0	636.4516153915866	823.1982882171164	0.0	628.1594672378732	1054.635771932455	0.0	609.6047106370356	1263.0527675083542	0.0	590.1603261425574	1290.1780468141733	0.0	629.2158642058237	1299.6698308787245	0.0	599.1849732168982	1298.0614931454866	0.0	523.7979711928552	821.4649490305119	0.0	532.3154762989185	1019.8088390738674	0.0	527.19157209552	1098.9002883059372	0.0	526.0063412112204	1298.7191315301181	0.0	501.60024071724894	1304.7783697455595	0.0	531.0344371038187	1104.9328253886526	0.0	578.6011608224331	539.7886158107805	0.0	583.2174031807975	436.9815289091326	0.0	584.4801460529527	494.97675344268157	0.0	676.1547605889657	560.887298876505	0.0	722.5898675155436	692.0608416307929	0.0	746.3012500963513	828.5977897499558	0.0	480.73287369858264	565.9971449341633	0.0	425.28290247017526	715.405109552429	0.0	435.44073501815046	717.3936899667976	0.0
